<?xml version="1.0" encoding="UTF-8"?>
<svg version="1.1" xmlns="http://www.w3.org/2000/svg" width="512" height="512">
<path d="M0 0 C17.8469302 17.09730147 17.8469302 17.09730147 19.00390625 26.7109375 C18.625 29.5625 18.625 29.5625 17.41796875 31.421875 C15.10148642 32.89554132 13.67013066 32.89829688 10.9375 32.8125 C10.12925781 32.79703125 9.32101562 32.7815625 8.48828125 32.765625 C6.24857125 32.60673698 4.01556665 32.35271643 1.7890625 32.0625 C-22.89690774 28.87197394 -47.2255923 35.22383524 -67.3828125 49.7265625 C-77.38838596 57.61396442 -84.90622383 66.62174031 -91.375 77.5625 C-90.24578125 76.80066406 -90.24578125 76.80066406 -89.09375 76.0234375 C-65.22048734 60.55217262 -36.66505498 56.69794155 -8.87109375 62.46484375 C17.36840634 68.58486081 39.95037274 80.21022121 54.625 103.5625 C58.02344073 109.64645245 61.4186726 115.94351779 63.625 122.5625 C64.30046875 122.35753906 64.9759375 122.15257812 65.671875 121.94140625 C66.56390625 121.67199219 67.4559375 121.40257812 68.375 121.125 C69.25671875 120.85816406 70.1384375 120.59132812 71.046875 120.31640625 C71.89765625 120.06761719 72.7484375 119.81882813 73.625 119.5625 C74.25019531 119.37171875 74.87539063 119.1809375 75.51953125 118.984375 C88.23670694 116.43622106 100.80460618 119.2783584 111.6875 126.0625 C124.42151141 135.15822244 135.52281428 146.84692696 139.1953125 162.51171875 C140.5615644 172.21210726 140.17499228 182.09110012 137.625 191.5625 C138.54539062 191.03140625 139.46578125 190.5003125 140.4140625 189.953125 C160.30506539 178.73459937 186.53157919 173.41539215 209.1171875 179.50390625 C211.625 180.5625 211.625 180.5625 212.9375 182.25 C213.625 184.5625 213.625 184.5625 213.81640625 187.92578125 C214.85068501 192.57753742 216.3410186 193.46297887 220.25 196.0625 C235.68735143 206.83380436 245.15686615 222.6490413 248.90234375 241.13671875 C250.04463758 248.24725494 249.99779902 255.4414051 250 262.625 C250.00190338 263.30316772 250.00380676 263.98133545 250.00576782 264.68005371 C250.00346435 271.93401695 249.83484389 278.62359018 247.625 285.5625 C245.315 285.8925 243.005 286.2225 240.625 286.5625 C239.94695312 285.63050781 239.26890625 284.69851563 238.5703125 283.73828125 C225.35013657 265.54083958 225.35013657 265.54083958 210.625 248.5625 C210.1304834 248.03011719 209.6359668 247.49773437 209.12646484 246.94921875 C194.38185777 231.14792227 172.71903929 213.40214789 150.06591797 212.45556641 C143.91596504 212.3239096 137.77349861 212.39401247 131.625 212.5625 C134.73417687 215.05430443 137.95143564 216.82416996 141.5 218.625 C155.15061596 225.9022644 166.84541865 235.49157861 177.625 246.5625 C178.13740234 247.05588867 178.64980469 247.54927734 179.17773438 248.05761719 C203.07347075 271.23783151 213.81100797 305.13239803 217 337.5 C217.09692139 338.44174072 217.19384277 339.38348145 217.29370117 340.35375977 C217.40742065 341.67718384 217.40742065 341.67718384 217.5234375 343.02734375 C217.59224121 343.807146 217.66104492 344.58694824 217.73193359 345.39038086 C217.60677683 347.93266331 216.97272062 349.41823816 215.625 351.5625 C213.875 352.5 213.875 352.5 211.625 352.5625 C194.13877861 346.31742093 179.92532998 326.08860638 169.625 311.5625 C165.69424356 312.13702746 165.69424356 312.13702746 162.625 314.5625 C159.3046875 315.0078125 159.3046875 315.0078125 155.625 314.5625 C153.0703125 312.4296875 153.0703125 312.4296875 150.75 309.4375 C150.12653687 308.64400146 150.12653687 308.64400146 149.49047852 307.83447266 C144.39581178 301.21304343 139.36575231 294.04400462 135.625 286.5625 C135.68558594 287.5927832 135.74617188 288.62306641 135.80859375 289.68457031 C139.25582627 349.55789856 138.76247217 409.24644461 129.4359436 468.57989502 C129.13310177 470.51084238 128.84214239 472.44364156 128.55151367 474.37646484 C128.26304565 476.10823975 128.26304565 476.10823975 127.96875 477.875 C127.80568359 478.88175781 127.64261719 479.88851563 127.47460938 480.92578125 C126.38804413 484.29788028 125.59198301 485.57863363 122.625 487.5625 C119.47595076 488.13575594 116.38078555 488.09910542 113.1875 488.05859375 C112.2704126 488.06004898 111.3533252 488.06150421 110.40844727 488.06300354 C108.47181009 488.06134546 106.53515962 488.04979434 104.59863281 488.02905273 C101.63549793 488.00010257 98.67415292 488.00844465 95.7109375 488.02148438 C93.82811631 488.01524662 91.94530077 488.00685539 90.0625 487.99609375 C89.17699463 487.99902939 88.29148926 488.00196503 87.37915039 488.00498962 C83.81933367 487.95043412 81.2668348 487.87286627 78.03344727 486.30932617 C76.625 484.5625 76.625 484.5625 76.32788086 482.53466797 C77.31382933 475.3785664 79.14725442 468.60972747 81.1875 461.6875 C96.5396148 407.64498967 108.13617563 347.89576937 106.625 291.5625 C106.04105469 292.54476562 106.04105469 292.54476562 105.4453125 293.546875 C102.10885019 298.98976744 98.56503631 304.22936301 94.625 309.25 C93.84125 310.26449219 93.0575 311.27898437 92.25 312.32421875 C89.625 314.5625 89.625 314.5625 85.9140625 314.9921875 C82.28693635 314.51833492 81.98958475 314.03456587 79.625 311.5625 C77.19769743 311.52031704 77.19769743 311.52031704 74.625 312.5625 C72.37043754 314.9553839 72.37043754 314.9553839 70.375 318 C69.59106975 319.10299266 68.80322528 320.20321263 68.01171875 321.30078125 C67.6151709 321.8520166 67.21862305 322.40325195 66.81005859 322.97119141 C63.7312229 327.10548292 60.16492055 330.8252528 56.625 334.5625 C55.4184375 335.84833984 55.4184375 335.84833984 54.1875 337.16015625 C40.435226 351.4066526 40.435226 351.4066526 32.625 352.5625 C30.4375 351.875 30.4375 351.875 28.625 350.5625 C21.74670843 330.47433366 35.04929522 298.36412478 43.65234375 280.234375 C57.59423447 251.9337477 80.25418511 231.45421995 107.625 216.5625 C66.35223516 222.12407824 30.81953621 244.36868775 5.5625 277.375 C1.95683585 282.13755594 -1.2613949 286.9562373 -4.25 292.125 C-5.81640625 294.703125 -5.81640625 294.703125 -7.375 296.5625 C-11.1875 297.375 -11.1875 297.375 -14.375 296.5625 C-17.67603653 293.26146347 -16.67119722 289.12466427 -16.70117188 284.63134766 C-16.69706329 283.27506367 -16.69249744 281.918781 -16.6875 280.5625 C-16.69124634 279.54407013 -16.69124634 279.54407013 -16.69506836 278.50506592 C-16.71969572 270.18422068 -16.24395841 262.32897789 -14.375 254.1875 C-13.20029072 249.04358301 -13.20029072 249.04358301 -14.640625 244.08984375 C-16.74950403 242.00172141 -18.99778696 240.33591612 -21.375 238.5625 C-28.94763861 230.22181797 -36.53105317 220.55660813 -41.9765625 210.6484375 C-42.66878906 209.61589844 -42.66878906 209.61589844 -43.375 208.5625 C-44.365 208.5625 -45.355 208.5625 -46.375 208.5625 C-47.303125 210.2640625 -47.303125 210.2640625 -48.25 212 C-50.125 215.4375 -50.125 215.4375 -52.375 216.5625 C-55.31130989 217.10879021 -57.37727933 217.22348994 -59.9375 215.52734375 C-69.11096244 206.90517112 -76.07251091 195.33834299 -82.375 184.5625 C-80.63572121 271.0916197 -64.9036619 359.5573167 -24.5546875 477.24609375 C-23.33929238 480.66288335 -23.00029631 482.22393388 -24.375 485.5625 C-27.83581111 487.86970741 -29.17022866 487.81949982 -33.25170898 487.8371582 C-34.45983749 487.84669022 -35.667966 487.85622223 -36.91270447 487.86604309 C-38.21897293 487.86513168 -39.52524139 487.86422028 -40.87109375 487.86328125 C-42.22485994 487.86716871 -43.57862491 487.87150349 -44.93238831 487.87626648 C-47.76950026 487.88372707 -50.60648778 487.88343871 -53.44360352 487.87817383 C-57.07649174 487.87238023 -60.70886995 487.88930762 -64.34167385 487.9125185 C-67.13754751 487.92726227 -69.93329853 487.92812669 -72.72920418 487.92500877 C-74.71894194 487.92577085 -76.7086607 487.93963966 -78.698349 487.95368958 C-80.51527 487.94434639 -80.51527 487.94434639 -82.36889648 487.93481445 C-83.43462387 487.93544388 -84.50035126 487.9360733 -85.59837341 487.9367218 C-88.77154693 487.50905511 -90.11076824 486.7960244 -92.375 484.5625 C-93.33818444 482.07425799 -94.06269145 479.79211985 -94.70703125 477.22265625 C-94.90441895 476.48174744 -95.10180664 475.74083862 -95.30517578 474.97747803 C-95.95008833 472.53082363 -96.57027728 470.07877608 -97.1875 467.625 C-97.40465668 466.77916351 -97.62181335 465.93332703 -97.84555054 465.06185913 C-112.46637502 408.05650021 -118.84176626 349.32432742 -120 290.5625 C-120.03318832 288.89758514 -120.03318832 288.89758514 -120.06704712 287.19903564 C-120.62149895 258.08081773 -120.03478995 229.05382576 -118.03588867 199.99755859 C-117.59123243 193.49860733 -117.26878604 187.07695639 -117.375 180.5625 C-117.96925781 181.55507812 -118.56351563 182.54765625 -119.17578125 183.5703125 C-123.50444306 190.70288709 -127.96070875 197.62650882 -133.125 204.1875 C-133.55981689 204.74195801 -133.99463379 205.29641602 -134.44262695 205.86767578 C-142.61783941 216.04999483 -142.61783941 216.04999483 -147.375 217.4375 C-151.48818827 216.23782009 -152.72526411 213.93274862 -154.98046875 210.41015625 C-156.32649639 208.26382899 -156.32649639 208.26382899 -159.375 207.5625 C-159.61476563 208.25472656 -159.85453125 208.94695312 -160.1015625 209.66015625 C-161.60220399 213.08032996 -163.57060763 215.9906054 -165.75 219 C-166.18699219 219.60618164 -166.62398438 220.21236328 -167.07421875 220.83691406 C-178.72035728 236.73963421 -193.72746859 255.8293351 -212.375 263.5625 C-217.54573171 262.39176829 -217.54573171 262.39176829 -219.375 260.5625 C-222.51912764 216.02928224 -204.39890112 169.88925269 -175.67871094 136.38574219 C-157.3655931 115.48365967 -135.84122796 101.29882009 -111.375 88.5625 C-136.38723962 83.05687021 -160.79965692 91.8579944 -181.765625 105.1015625 C-187.74268026 109.05516902 -193.0445687 113.79431967 -198.375 118.5625 C-199.72888853 119.70866195 -201.08301624 120.85454151 -202.4375 122 C-211.61906315 130.1161919 -219.84190376 138.90193964 -227.375 148.5625 C-228.15230469 149.53445312 -228.92960937 150.50640625 -229.73046875 151.5078125 C-235.3724171 158.66564204 -240.49253713 166.07978299 -245.44067383 173.73461914 C-245.92431396 174.47703857 -246.4079541 175.21945801 -246.90625 175.984375 C-247.33486328 176.65049805 -247.76347656 177.31662109 -248.20507812 178.00292969 C-249.375 179.5625 -249.375 179.5625 -251.375 180.5625 C-254.8125 180.9375 -254.8125 180.9375 -258.375 180.5625 C-266.66797756 171.71665727 -262.85301697 148.34185652 -262.55419922 136.70263672 C-262.26842384 128.70795163 -260.87795378 121.15082019 -258.375 113.5625 C-258.15537598 112.89428223 -257.93575195 112.22606445 -257.70947266 111.53759766 C-250.92822183 91.70255897 -237.53496189 72.32238669 -218.375 62.5625 C-217.715 62.5625 -217.055 62.5625 -216.375 62.5625 C-216.61476562 61.97082031 -216.85453125 61.37914063 -217.1015625 60.76953125 C-219.52052582 54.32246815 -219.52052582 54.32246815 -218.8125 50.625 C-216.79697125 47.73315441 -214.65252739 46.80541217 -211.21533203 46.15185547 C-210.44560059 46.07854004 -209.67586914 46.00522461 -208.8828125 45.9296875 C-208.02018799 45.84557617 -207.15756348 45.76146484 -206.26879883 45.67480469 C-205.35509521 45.59649414 -204.4413916 45.51818359 -203.5 45.4375 C-202.55471436 45.3540332 -201.60942871 45.27056641 -200.63549805 45.18457031 C-171.31357895 42.73670587 -141.55348305 46.61975725 -117.9140625 65.375 C-114.55059499 68.27275663 -111.36889753 71.28397137 -108.375 74.5625 C-108.53355469 73.66660156 -108.69210938 72.77070312 -108.85546875 71.84765625 C-111.55894976 52.72160854 -110.52849915 32.86192687 -99.375 16.5625 C-86.67184761 0.36488181 -66.71102823 -11.08106859 -46.25 -14.1875 C-28.5701654 -15.32813449 -13.66234791 -11.96747268 0 0 Z M-85.375 91.5625 C-82.32491836 94.0199492 -79.08002533 95.9359899 -75.69042969 97.87255859 C-62.13507684 105.6232229 -50.10660456 114.21401536 -38.89355469 125.09521484 C-37.45789638 126.48240238 -35.99910473 127.84553181 -34.5390625 129.20703125 C-12.51228794 150.25553932 0.69012038 177.8248343 9.625 206.5625 C13.03443819 205.29664905 15.90897829 203.81358362 18.9375 201.8125 C29.17934975 195.56970336 40.96923994 192.07908456 52.625 189.5625 C44.56827021 173.72685869 32.56005029 159.78420354 20.5625 146.8125 C19.99684326 146.19826172 19.43118652 145.58402344 18.84838867 144.95117188 C-7.37627913 116.95604644 -44.38290596 97.12619578 -82.375 91.5625 C-83.365 91.5625 -84.355 91.5625 -85.375 91.5625 Z M69.625 149.5625 C69.625 162.4325 69.625 175.3025 69.625 188.5625 C75.565 189.5525 81.505 190.5425 87.625 191.5625 C97.19131935 194.48103811 105.18698931 198.25573322 113.625 203.5625 C115.28984536 204.56552926 116.95594132 205.56649753 118.625 206.5625 C117.48636557 190.24207322 107.31584688 174.43808559 95.625 163.5625 C83.77698684 153.78539873 83.77698684 153.78539873 69.625 149.5625 Z M107.625 288.5625 C108.625 290.5625 108.625 290.5625 108.625 290.5625 Z " fill="#158F5E" transform="translate(262.375,19.4375)"/>
<path d="M0 0 C12.1169004 9.70620817 22.73453786 21.41678132 24.984375 37.390625 C25.53424168 46.232836 25.3027143 54.77965047 22.984375 63.390625 C24.36496094 62.59398437 24.36496094 62.59398437 25.7734375 61.78125 C45.66444039 50.56272437 71.89095419 45.24351715 94.4765625 51.33203125 C96.984375 52.390625 96.984375 52.390625 98.296875 54.078125 C98.984375 56.390625 98.984375 56.390625 99.17578125 59.75390625 C100.21006001 64.40566242 101.7003936 65.29110387 105.609375 67.890625 C121.04672643 78.66192936 130.51624115 94.4771663 134.26171875 112.96484375 C135.40401258 120.07537994 135.35717402 127.2695301 135.359375 134.453125 C135.36127838 135.13129272 135.36318176 135.80946045 135.36514282 136.50817871 C135.36283935 143.76214195 135.19421889 150.45171518 132.984375 157.390625 C130.674375 157.720625 128.364375 158.050625 125.984375 158.390625 C125.30632812 157.45863281 124.62828125 156.52664063 123.9296875 155.56640625 C110.70951157 137.36896458 110.70951157 137.36896458 95.984375 120.390625 C95.4898584 119.85824219 94.9953418 119.32585937 94.48583984 118.77734375 C79.74123277 102.97604727 58.07841429 85.23027289 35.42529297 84.28369141 C29.27534004 84.1520346 23.13287361 84.22213747 16.984375 84.390625 C20.09355187 86.88242943 23.31081064 88.65229496 26.859375 90.453125 C40.50999096 97.7303894 52.20479365 107.31970361 62.984375 118.390625 C63.75297852 119.13070801 63.75297852 119.13070801 64.53710938 119.88574219 C88.43284575 143.06595651 99.17038297 176.96052303 102.359375 209.328125 C102.50475708 210.74073608 102.50475708 210.74073608 102.65307617 212.18188477 C102.72888916 213.06416748 102.80470215 213.9464502 102.8828125 214.85546875 C102.95161621 215.635271 103.02041992 216.41507324 103.09130859 217.21850586 C102.96615183 219.76078831 102.33209562 221.24636316 100.984375 223.390625 C99.234375 224.328125 99.234375 224.328125 96.984375 224.390625 C79.49815361 218.14554593 65.28470498 197.91673138 54.984375 183.390625 C51.05361856 183.96515246 51.05361856 183.96515246 47.984375 186.390625 C44.6640625 186.8359375 44.6640625 186.8359375 40.984375 186.390625 C38.4296875 184.2578125 38.4296875 184.2578125 36.109375 181.265625 C35.69373291 180.73662598 35.27809082 180.20762695 34.84985352 179.66259766 C29.75518678 173.04116843 24.72512731 165.87212962 20.984375 158.390625 C21.04496094 159.4209082 21.10554688 160.45119141 21.16796875 161.51269531 C24.61520127 221.38602356 24.12184717 281.07456961 14.7953186 340.40802002 C14.49247677 342.33896738 14.20151739 344.27176656 13.91088867 346.20458984 C13.71857666 347.35910645 13.52626465 348.51362305 13.328125 349.703125 C13.16505859 350.70988281 13.00199219 351.71664063 12.83398438 352.75390625 C11.74741913 356.12600528 10.95135801 357.40675863 7.984375 359.390625 C4.83532576 359.96388094 1.74016055 359.92723042 -1.453125 359.88671875 C-2.3702124 359.88817398 -3.2872998 359.88962921 -4.23217773 359.89112854 C-6.16881491 359.88947046 -8.10546538 359.87791934 -10.04199219 359.85717773 C-13.00512707 359.82822757 -15.96647208 359.83656965 -18.9296875 359.84960938 C-20.81250869 359.84337162 -22.69532423 359.83498039 -24.578125 359.82421875 C-25.46363037 359.82715439 -26.34913574 359.83009003 -27.26147461 359.83311462 C-30.82129133 359.77855912 -33.3737902 359.70099127 -36.60717773 358.13745117 C-38.015625 356.390625 -38.015625 356.390625 -38.31274414 354.36279297 C-37.32679567 347.2066914 -35.49337058 340.43785247 -33.453125 333.515625 C-18.1010102 279.47311467 -6.50444937 219.72389437 -8.015625 163.390625 C-8.59957031 164.37289062 -8.59957031 164.37289062 -9.1953125 165.375 C-12.53177481 170.81789244 -16.07558869 176.05748801 -20.015625 181.078125 C-21.19125 182.59986328 -21.19125 182.59986328 -22.390625 184.15234375 C-25.015625 186.390625 -25.015625 186.390625 -28.7265625 186.8203125 C-32.35368865 186.34645992 -32.65104025 185.86269087 -35.015625 183.390625 C-37.44292757 183.34844204 -37.44292757 183.34844204 -40.015625 184.390625 C-42.27018746 186.7835089 -42.27018746 186.7835089 -44.265625 189.828125 C-45.04955525 190.93111766 -45.83739972 192.03133763 -46.62890625 193.12890625 C-47.0254541 193.6801416 -47.42200195 194.23137695 -47.83056641 194.79931641 C-50.9094021 198.93360792 -54.47570445 202.6533778 -58.015625 206.390625 C-58.82 207.24785156 -59.624375 208.10507812 -60.453125 208.98828125 C-74.205399 223.2347776 -74.205399 223.2347776 -82.015625 224.390625 C-84.203125 223.703125 -84.203125 223.703125 -86.015625 222.390625 C-92.89391657 202.30245866 -79.59132978 170.19224978 -70.98828125 152.0625 C-59.88800144 129.53005529 -42.38400005 109.6752273 -21.015625 96.390625 C-20.36174805 95.978125 -19.70787109 95.565625 -19.03417969 95.140625 C-16.98117766 93.8622488 -14.9108431 92.61991614 -12.828125 91.390625 C-12.21122803 91.01615234 -11.59433105 90.64167969 -10.95874023 90.25585938 C-5.56740617 87.20621586 -0.11014903 86.23943284 5.984375 85.390625 C-0.22652856 63.12894358 -7.65854375 41.72789267 -28.81054688 29.33935547 C-37.5233808 24.49816099 -46.34727597 20.88918711 -56.015625 18.390625 C-57.16160156 18.09285156 -58.30757813 17.79507813 -59.48828125 17.48828125 C-62.32620693 16.76801239 -65.16722691 16.06808184 -68.015625 15.390625 C-68.77734375 12.66796875 -68.77734375 12.66796875 -69.015625 9.390625 C-62.6700996 0.60794231 -50.18504324 -6.5002293 -39.765625 -9.171875 C-25.02943308 -11.51626917 -12.11352764 -8.65251974 0 0 Z M-7.015625 160.390625 C-6.015625 162.390625 -6.015625 162.390625 -6.015625 162.390625 Z " fill="#99D53B" transform="translate(377.015625,147.609375)"/>
<path d="M0 0 C0.33 0 0.66 0 1 0 C1.29390625 1.56621094 1.29390625 1.56621094 1.59375 3.1640625 C3.39168155 12.20056849 5.78397344 20.8381754 8.9375 29.5 C9.26105469 30.39412598 9.58460938 31.28825195 9.91796875 32.20947266 C11.53719244 36.54266302 13.29781993 40.58152963 15.55688477 44.61962891 C18.3426402 50.1617537 18.90371617 55.1079133 19.1875 61.2421875 C19.25544769 62.30695313 19.32339539 63.37171875 19.3934021 64.46875 C19.53779088 66.75057559 19.67307506 69.03299266 19.79998779 71.31585693 C20.14197379 77.40137095 20.56217259 83.48155737 20.9765625 89.5625 C21.09990463 91.4024202 21.09990463 91.4024202 21.22573853 93.2795105 C27.14146095 179.58625126 45.38474939 266.03738473 76.8203125 346.68359375 C78.03570762 350.10038335 78.37470369 351.66143388 77 355 C73.53918889 357.30720741 72.20477134 357.25699982 68.12329102 357.2746582 C66.91516251 357.28419022 65.707034 357.29372223 64.46229553 357.30354309 C63.15602707 357.30263168 61.84975861 357.30172028 60.50390625 357.30078125 C59.15014006 357.30466871 57.79637509 357.30900349 56.44261169 357.31376648 C53.60549974 357.32122707 50.76851222 357.32093871 47.93139648 357.31567383 C44.29850826 357.30988023 40.66613005 357.32680762 37.03332615 357.3500185 C34.23745249 357.36476227 31.44170147 357.36562669 28.64579582 357.36250877 C26.65605806 357.36327085 24.6663393 357.37713966 22.676651 357.39118958 C20.85973 357.38184639 20.85973 357.38184639 19.00610352 357.37231445 C17.94037613 357.37294388 16.87464874 357.3735733 15.77662659 357.3742218 C12.60345307 356.94655511 11.26423176 356.2335244 9 354 C8.03681556 351.51175799 7.31230855 349.22961985 6.66796875 346.66015625 C6.47058105 345.91924744 6.27319336 345.17833862 6.06982422 344.41497803 C5.42491167 341.96832363 4.80472272 339.51627608 4.1875 337.0625 C3.97034332 336.21666351 3.75318665 335.37082703 3.52944946 334.49935913 C-16.47288519 256.51194691 -21.47701404 174.92240645 -18.1081543 94.69244385 C-17.99362664 91.84133867 -17.89525894 88.98995553 -17.79882812 86.13818359 C-16.34276064 44.60337266 -16.34276064 44.60337266 -7.11914062 25.60546875 C-4.9714638 20.6054672 -3.74122316 15.33337579 -2.4375 10.0625 C-2.18637451 9.0526001 -1.93524902 8.0427002 -1.67651367 7.00219727 C-1.10577638 4.67071393 -0.54602951 2.33737228 0 0 Z " fill="#E89A5E" transform="translate(161,150)"/>
<path d="M0 0 C11.97177057 10.32801799 25.18835585 25.93894923 27.44140625 42.1796875 C26.80074219 42.61539063 26.16007813 43.05109375 25.5 43.5 C22.79213826 45.36442939 20.11141545 47.26146609 17.44140625 49.1796875 C16.70792969 49.70433594 15.97445312 50.22898437 15.21875 50.76953125 C14.59097656 51.25550781 13.96320313 51.74148437 13.31640625 52.2421875 C12.47722656 52.87833984 12.47722656 52.87833984 11.62109375 53.52734375 C9.84781932 56.0111023 10.25255807 58.21969756 10.44140625 61.1796875 C11.03155518 61.29038574 11.6217041 61.40108398 12.22973633 61.51513672 C14.90585571 62.02123742 17.57984328 62.5378364 20.25390625 63.0546875 C21.18267578 63.22871094 22.11144531 63.40273437 23.06835938 63.58203125 C23.96103516 63.75605469 24.85371094 63.93007812 25.7734375 64.109375 C26.59561768 64.26647949 27.41779785 64.42358398 28.26489258 64.58544922 C30.44140625 65.1796875 30.44140625 65.1796875 33.44140625 67.1796875 C34.76334653 74.55672206 34.59161795 82.01691724 34.56640625 89.4921875 C34.57027344 90.65814453 34.57414063 91.82410156 34.578125 93.02539062 C34.57619141 94.7047168 34.57619141 94.7047168 34.57421875 96.41796875 C34.57309082 97.42899658 34.57196289 98.44002441 34.57080078 99.48168945 C34.45588007 101.87789479 34.12764915 103.89096179 33.44140625 106.1796875 C34.21742188 106.20546875 34.9934375 106.23125 35.79296875 106.2578125 C52.41540802 107.13058974 71.52423707 112.78130246 83.44140625 125.1796875 C85.00390625 128.6171875 85.00390625 128.6171875 85.44140625 131.1796875 C83.76806548 132.85302827 81.58548831 132.66739523 79.2890625 132.9765625 C32.97938121 139.4715507 -3.72730043 159.46941283 -32.24487305 197.13696289 C-35.25525011 201.21060989 -37.89953191 205.35955282 -40.43359375 209.7421875 C-42 212.3203125 -42 212.3203125 -43.55859375 214.1796875 C-47.37109375 214.9921875 -47.37109375 214.9921875 -50.55859375 214.1796875 C-53.86625691 210.87202434 -52.85423299 206.70132748 -52.88818359 202.19970703 C-52.88436134 200.83886063 -52.87862773 199.47801841 -52.87109375 198.1171875 C-52.86786102 197.0923526 -52.86786102 197.0923526 -52.86456299 196.04681396 C-52.73815352 171.2099109 -47.2749676 147.91215099 -29.671875 129.43359375 C-27.50519418 127.21091332 -27.50519418 127.21091332 -25.6875 124.64453125 C-16.57313809 114.09193975 1.22967839 109.21928604 14.44140625 107.1796875 C14.44140625 103.66065993 13.74411675 102.80116262 11.765625 99.96875 C11.19054199 99.1425415 10.61545898 98.31633301 10.02294922 97.46508789 C9.39791504 96.58715576 8.77288086 95.70922363 8.12890625 94.8046875 C7.49098145 93.90290771 6.85305664 93.00112793 6.19580078 92.07202148 C0.96902425 84.76224191 -4.54440303 77.85012571 -10.55859375 71.1796875 C-11.05633301 70.62168457 -11.55407227 70.06368164 -12.06689453 69.48876953 C-13.61858197 67.75327205 -15.17970516 66.02692209 -16.74609375 64.3046875 C-17.20902832 63.79301025 -17.67196289 63.28133301 -18.14892578 62.75415039 C-49.54231909 28.7859916 -91.31514026 14.69548261 -135.55859375 7.1796875 C-132.61751238 0.13894295 -129.9460144 -4.31675236 -123.24609375 -8.0703125 C-122.54677734 -8.481604 -121.84746094 -8.89289551 -121.12695312 -9.31665039 C-85.15993457 -29.79160824 -32.42690382 -26.50578173 0 0 Z " fill="#1BA46E" transform="translate(298.55859375,101.8203125)"/>
<path d="M0 0 C22.52842346 -0.61721708 44.23363885 17.32631188 60 32 C60.63147949 32.58765137 61.26295898 33.17530273 61.91357422 33.78076172 C82.48172761 53.15569373 96.98980764 75.59439531 107 102 C107.42249023 103.10093994 107.42249023 103.10093994 107.85351562 104.22412109 C112.29937732 115.97276157 112.29937732 115.97276157 111.375 119.14453125 C109.71250495 121.38795497 107.85337229 123.27852099 105.875 125.25 C97.70763115 134.1407268 93.16821948 145.80099481 89 157 C84.38231833 153.20965649 80.19077063 149.29462864 76.3125 144.75 C75.80920166 144.16589355 75.30590332 143.58178711 74.78735352 142.97998047 C69.9680942 137.23747138 65.88105794 131.0482265 61.92114258 124.69042969 C61.45087646 123.94954102 60.98061035 123.20865234 60.49609375 122.4453125 C60.08544678 121.78031738 59.6747998 121.11532227 59.25170898 120.43017578 C58.63211304 119.72223877 58.63211304 119.72223877 58 119 C57.01 119 56.02 119 55 119 C54.38125 120.134375 53.7625 121.26875 53.125 122.4375 C51.25 125.875 51.25 125.875 49 127 C46.06369011 127.54629021 43.99772067 127.66098994 41.4375 125.96484375 C35.52064951 120.40357322 30.90621457 113.39595316 26.25439453 106.77929688 C25.21519675 105.30524599 24.15516384 103.84590888 23.08984375 102.390625 C12.90469704 87.65466806 6.54829168 69.23050344 2 52 C1.66097656 50.73542969 1.32195312 49.47085938 0.97265625 48.16796875 C-1.96744492 34.79525053 -4.40491782 13.21475347 0 0 Z " fill="#A3E340" transform="translate(161,109)"/>
<path d="M0 0 C5.74548774 5.33336415 9.06402422 11.2808672 9.8515625 19.15625 C8.6346875 19.176875 7.4178125 19.1975 6.1640625 19.21875 C5.47957031 19.23035156 4.79507813 19.24195313 4.08984375 19.25390625 C1.8515625 19.15625 1.8515625 19.15625 -0.4921875 18.66503906 C-25.33749672 13.90606623 -49.90839502 23.37179779 -70.35351562 36.89550781 C-75.60929115 40.58713251 -80.36825335 44.88027705 -85.1484375 49.15625 C-86.50232603 50.30241195 -87.85645374 51.44829151 -89.2109375 52.59375 C-98.39250065 60.7099419 -106.61534126 69.49568964 -114.1484375 79.15625 C-114.92574219 80.12820312 -115.70304687 81.10015625 -116.50390625 82.1015625 C-122.1458546 89.25939204 -127.26597463 96.67353299 -132.21411133 104.32836914 C-132.69775146 105.07078857 -133.1813916 105.81320801 -133.6796875 106.578125 C-134.10830078 107.24424805 -134.53691406 107.91037109 -134.97851562 108.59667969 C-136.1484375 110.15625 -136.1484375 110.15625 -138.1484375 111.15625 C-141.5859375 111.53125 -141.5859375 111.53125 -145.1484375 111.15625 C-153.44141506 102.31040727 -149.62645447 78.93560652 -149.32763672 67.29638672 C-149.04186134 59.30170163 -147.65139128 51.74457019 -145.1484375 44.15625 C-144.92881348 43.48803223 -144.70918945 42.81981445 -144.48291016 42.13134766 C-137.70165933 22.29630897 -124.30839939 2.91613669 -105.1484375 -6.84375 C-104.4884375 -6.84375 -103.8284375 -6.84375 -103.1484375 -6.84375 C-103.38820312 -7.43542969 -103.62796875 -8.02710937 -103.875 -8.63671875 C-106.29396332 -15.08378185 -106.29396332 -15.08378185 -105.5859375 -18.78125 C-103.57040875 -21.67309559 -101.42596489 -22.60083783 -97.98876953 -23.25439453 C-96.83417236 -23.36436768 -96.83417236 -23.36436768 -95.65625 -23.4765625 C-94.79362549 -23.56067383 -93.93100098 -23.64478516 -93.04223633 -23.73144531 C-91.67168091 -23.84891113 -91.67168091 -23.84891113 -90.2734375 -23.96875 C-88.85550903 -24.0939502 -88.85550903 -24.0939502 -87.40893555 -24.22167969 C-55.10591926 -26.91841331 -25.04831327 -21.49600703 0 0 Z " fill="#A3E33F" transform="translate(149.1484375,88.84375)"/>
<path d="M0 0 C0.33 0 0.66 0 1 0 C1.15557373 0.57331055 1.31114746 1.14662109 1.47143555 1.73730469 C2.20193123 4.41051678 2.94467498 7.0801888 3.6875 9.75 C4.05391602 11.10158203 4.05391602 11.10158203 4.42773438 12.48046875 C5.83429366 17.50135128 7.4781423 22.17622692 9.62890625 26.9296875 C12.26441695 33.09064742 12.93691506 38.72606464 13.25 45.375 C13.31445312 46.37660156 13.37890625 47.37820313 13.4453125 48.41015625 C13.66233723 51.93897834 13.83176128 55.46851048 14 59 C14.08665617 60.62387882 14.17367594 62.24773826 14.26098633 63.87158203 C14.99134693 77.95853276 15.20158364 92.02049868 15.1875 106.125 C15.18659363 107.82027832 15.18659363 107.82027832 15.18566895 109.54980469 C15.1322223 146.64438585 12.57373993 183.35567385 6.8109436 220.01739502 C6.50810177 221.94834238 6.21714239 223.88114156 5.92651367 225.81396484 C5.73420166 226.96848145 5.54188965 228.12299805 5.34375 229.3125 C5.18068359 230.31925781 5.01761719 231.32601562 4.84960938 232.36328125 C3.76304413 235.73538028 2.96698301 237.01613363 0 239 C-3.14904924 239.57325594 -6.24421445 239.53660542 -9.4375 239.49609375 C-10.8131311 239.4982766 -10.8131311 239.4982766 -12.21655273 239.50050354 C-14.15318991 239.49884546 -16.08984038 239.48729434 -18.02636719 239.46655273 C-20.98950207 239.43760257 -23.95084708 239.44594465 -26.9140625 239.45898438 C-28.79688369 239.45274662 -30.67969923 239.44435539 -32.5625 239.43359375 C-33.44800537 239.43652939 -34.33351074 239.43946503 -35.24584961 239.44248962 C-38.80566633 239.38793412 -41.3581652 239.31036627 -44.59155273 237.74682617 C-46 236 -46 236 -46.29711914 233.97216797 C-45.31117067 226.8160664 -43.47774558 220.04722747 -41.4375 213.125 C-26.86083119 161.81221442 -19.02533756 108.79925674 -16.07543945 55.58959961 C-16.02431503 54.74465942 -15.97319061 53.89971924 -15.92051697 53.0291748 C-15.82652814 51.47035849 -15.74197817 49.91092557 -15.66969299 48.35095215 C-15.18032854 40.48027042 -12.40862585 33.67110624 -9.125 26.5625 C-5.98199617 19.39864588 -3.94452828 12.10269829 -1.98046875 4.54296875 C-1 1 -1 1 0 0 Z " fill="#D58959" transform="translate(385,268)"/>
<path d="M0 0 C4.7443698 14.23310941 1.48032763 33.90094769 -3 48 C-3.21430664 48.67530762 -3.42861328 49.35061523 -3.64941406 50.04638672 C-8.94671256 66.18117143 -16.68433687 80.55310692 -27 94 C-27.56847656 94.80050781 -28.13695312 95.60101563 -28.72265625 96.42578125 C-31.22764448 99.75908559 -32.50865088 100.91672049 -36.6875 101.625 C-40.23083419 100.95644638 -40.6622403 100.4440215 -43 98 C-45.42730257 97.95781704 -45.42730257 97.95781704 -48 99 C-50.25456246 101.3928839 -50.25456246 101.3928839 -52.25 104.4375 C-53.03393025 105.54049266 -53.82177472 106.64071263 -54.61328125 107.73828125 C-55.0098291 108.2895166 -55.40637695 108.84075195 -55.81494141 109.40869141 C-58.8937771 113.54298292 -62.46007945 117.2627528 -66 121 C-66.804375 121.85722656 -67.60875 122.71445312 -68.4375 123.59765625 C-82.189774 137.8441526 -82.189774 137.8441526 -90 139 C-92.1875 138.3125 -92.1875 138.3125 -94 137 C-100.87829157 116.91183366 -87.57570478 84.80162478 -78.97265625 66.671875 C-67.87237644 44.13943029 -50.36837505 24.2846023 -29 11 C-28.34612305 10.5875 -27.69224609 10.175 -27.01855469 9.75 C-18.38663596 4.3750226 -10.46229312 0 0 0 Z " fill="#99D53B" transform="translate(385,233)"/>
<path d="M0 0 C6.25064391 0.33657313 10.69071597 1.92332446 16.125 4.9375 C16.85855713 5.33646484 17.59211426 5.73542969 18.34790039 6.14648438 C31.74251199 13.59775312 43.31337131 23.02454351 54 34 C54.51240234 34.49338867 55.02480469 34.98677734 55.55273438 35.49511719 C79.44847075 58.67533151 90.18600797 92.56989803 93.375 124.9375 C93.52038208 126.35011108 93.52038208 126.35011108 93.66870117 127.79125977 C93.74451416 128.67354248 93.82032715 129.5558252 93.8984375 130.46484375 C93.96724121 131.244646 94.03604492 132.02444824 94.10693359 132.82788086 C93.98177683 135.37016331 93.34772062 136.85573816 92 139 C90.25 139.9375 90.25 139.9375 88 140 C70.51377861 133.75492093 56.30032998 113.52610638 46 99 C42.06924356 99.57452746 42.06924356 99.57452746 39 102 C35.6796875 102.4453125 35.6796875 102.4453125 32 102 C29.4453125 99.8671875 29.4453125 99.8671875 27.125 96.875 C26.70428223 96.33367432 26.28356445 95.79234863 25.85009766 95.23461914 C24.53454524 93.51119126 23.26318173 91.76208956 22 90 C21.60490234 89.46004395 21.20980469 88.92008789 20.80273438 88.36376953 C13.79745971 78.65940374 9.16497577 68.1748082 5 57 C4.69368652 56.22930176 4.38737305 55.45860352 4.07177734 54.66455078 C-1.89091876 39.37930334 -1.65368859 24.17136071 -1.30859375 8.015625 C-1.29465073 7.32184753 -1.2807077 6.62807007 -1.26634216 5.91326904 C-1.12262591 1.12262591 -1.12262591 1.12262591 0 0 Z " fill="#1CA56F" transform="translate(386,232)"/>
<path d="M0 0 C1.53962752 36.41711559 -15.81323158 71.28521521 -38 99 C-38.58007812 99.77085937 -39.16015625 100.54171875 -39.7578125 101.3359375 C-41.98804656 104.19670894 -43.6772445 105.86826306 -47.0625 107.25 C-50 107 -50 107 -52.375 104.5625 C-55.23473403 101.77085488 -55.57902506 101.6481312 -59.3125 101.6875 C-60.529375 101.790625 -61.74625 101.89375 -63 102 C-63.26683594 102.56589844 -63.53367188 103.13179688 -63.80859375 103.71484375 C-72.59955576 120.5761971 -89.0420254 138.59086428 -105 149 C-105.33 149 -105.66 149 -106 149 C-105.13379736 107.2647819 -83.83364666 67.84854027 -56 38 C-55.27554688 37.20980469 -54.55109375 36.41960937 -53.8046875 35.60546875 C-42.88548116 24.14955565 -17.08096763 0 0 0 Z " fill="#2CB081" transform="translate(150,110)"/>
<path d="M0 0 C2.23634606 2.32664982 3.1054754 4.55361039 3.64453125 7.7109375 C1.97119048 9.38427827 -0.21138669 9.19864523 -2.5078125 9.5078125 C-48.81749379 16.0028007 -85.52417543 36.00066283 -114.04174805 73.66821289 C-117.05212511 77.74185989 -119.69640691 81.89080282 -122.23046875 86.2734375 C-123.796875 88.8515625 -123.796875 88.8515625 -125.35546875 90.7109375 C-129.16796875 91.5234375 -129.16796875 91.5234375 -132.35546875 90.7109375 C-135.66313191 87.40327434 -134.65110799 83.23257748 -134.68505859 78.73095703 C-134.68123634 77.37011063 -134.67550273 76.00926841 -134.66796875 74.6484375 C-134.6658136 73.96521423 -134.66365845 73.28199097 -134.66143799 72.57806396 C-134.53502852 47.7411609 -129.0718426 24.44340099 -111.46875 5.96484375 C-109.30206918 3.74216332 -109.30206918 3.74216332 -107.484375 1.17578125 C-97.48391049 -10.40273822 -77.6120608 -15.49628963 -62.97265625 -16.66015625 C-40.05137911 -18.24928484 -18.30789409 -15.01315248 0 0 Z " fill="#1CA56F" transform="translate(380.35546875,225.2890625)"/>
<path d="M0 0 C9.24 0 18.48 0 28 0 C28.825 3.568125 29.65 7.13625 30.5 10.8125 C30.89155273 12.49436401 30.89155273 12.49436401 31.29101562 14.21020508 C31.49404297 15.09603271 31.69707031 15.98186035 31.90625 16.89453125 C32.11572266 17.80050049 32.32519531 18.70646973 32.54101562 19.63989258 C33 22 33 22 33 25 C31.865625 25.45375 30.73125 25.9075 29.5625 26.375 C25.95278308 27.57095806 25.95278308 27.57095806 25 30 C24.4369534 34.77826835 24.4369534 34.77826835 26.5 38.875 C30.00542808 40.45244264 33.17099729 40.68091644 37 41 C39.0238821 46.11642172 40.64469708 51.18971561 42.04077148 56.5090332 C45.45563048 69.46734816 49.6137743 82.1350743 53.9375 94.8125 C54.22605865 95.66415741 54.51461731 96.51581482 54.81192017 97.39328003 C58.38820717 107.92545096 62.20261568 118.30820001 66.51463318 128.56440735 C66.83924026 129.34970322 67.16384735 130.13499908 67.49829102 130.9440918 C67.78849625 131.63254684 68.07870148 132.32100189 68.37770081 133.03031921 C69 135 69 135 69 139 C63.23424086 139.07418336 57.46875983 139.12861797 51.70263672 139.16479492 C49.74132447 139.17987695 47.78004592 139.20034547 45.81884766 139.22631836 C42.99893882 139.26272731 40.17947608 139.27973216 37.359375 139.29296875 C36.48319519 139.30845261 35.60701538 139.32393646 34.70428467 139.33988953 C31.31040764 139.34082674 28.69418121 139.30154604 25.56079102 137.94042969 C23.30002037 135.12976098 22.52892603 132.09343538 21.66796875 128.66015625 C21.37188721 127.54879303 21.37188721 127.54879303 21.06982422 126.41497803 C20.42491167 123.96832363 19.80472272 121.51627608 19.1875 119.0625 C18.97034332 118.21666351 18.75318665 117.37082703 18.52944946 116.49935913 C8.96240853 79.19827512 0 38.64313548 0 0 Z " fill="#F4A770" transform="translate(146,368)"/>
<path d="M0 0 C-0.66 0 -1.32 0 -2 0 C-1.9685791 1.24797363 -1.9371582 2.49594727 -1.90478516 3.78173828 C-0.85591212 49.46170948 -0.85591212 49.46170948 -8 67 C-8.75901277 69.0216852 -9.51675585 71.0438474 -10.2734375 73.06640625 C-18.02100638 93.15413499 -29.08946466 112.21972127 -45 127 C-48 127.875 -48 127.875 -51 127 C-52.76403039 125.05570373 -54.19034828 123.05805104 -55.60546875 120.84765625 C-56.95149639 118.70132899 -56.95149639 118.70132899 -60 118 C-60.23976562 118.69222656 -60.47953125 119.38445312 -60.7265625 120.09765625 C-62.22720399 123.51782996 -64.19560763 126.4281054 -66.375 129.4375 C-66.81199219 130.04368164 -67.24898437 130.64986328 -67.69921875 131.27441406 C-79.34535728 147.17713421 -94.35246859 166.2668351 -113 174 C-118.17073171 172.82926829 -118.17073171 172.82926829 -120 171 C-120.30593196 167.92633322 -120.27840183 164.8370208 -120.3125 161.75 C-120.34150391 160.89019531 -120.37050781 160.03039062 -120.40039062 159.14453125 C-120.44130367 155.05952116 -120.4002173 152.66344747 -118.25390625 149.10546875 C-116.11501056 147.10743621 -113.97844186 145.30147667 -111.625 143.5625 C-97.7965224 132.71183616 -86.48382068 119.46841202 -77.15625 104.609375 C-76 103 -76 103 -74 102 C-71.1875 101.625 -71.1875 101.625 -68 102 C-67.175 102.845625 -66.35 103.69125 -65.5 104.5625 C-63.2439799 107.33030988 -63.2439799 107.33030988 -60.16796875 106.99609375 C-56.19480847 105.74682634 -54.31327965 103.6646043 -51.8125 100.5 C-51.34545654 99.92612549 -50.87841309 99.35225098 -50.3972168 98.76098633 C-38.26230502 83.50456688 -28.85103915 66.22821607 -22 48 C-21.47986328 46.62134766 -21.47986328 46.62134766 -20.94921875 45.21484375 C-16.0313865 30.80312685 -14.17890506 15.1234025 -13 0 C-3.89285714 -2.41071429 -3.89285714 -2.41071429 0 0 Z " fill="#1CA56F" transform="translate(163,109)"/>
<path d="M0 0 C12.78549466 10.45087538 26.84973174 26.65255439 29.20361328 43.62011719 C28.56294922 44.05582031 27.92228516 44.49152344 27.26220703 44.94042969 C24.55434529 46.80485908 21.87362248 48.70189577 19.20361328 50.62011719 C18.47013672 51.14476562 17.73666016 51.66941406 16.98095703 52.20996094 C16.35318359 52.6959375 15.72541016 53.18191406 15.07861328 53.68261719 C14.23943359 54.31876953 14.23943359 54.31876953 13.38330078 54.96777344 C11.61002635 57.45153199 12.0147651 59.66012725 12.20361328 62.62011719 C12.79376221 62.73081543 13.38391113 62.84151367 13.99194336 62.95556641 C16.66806274 63.46166711 19.34205031 63.97826609 22.01611328 64.49511719 C22.94488281 64.66914063 23.87365234 64.84316406 24.83056641 65.02246094 C25.72324219 65.19648438 26.61591797 65.37050781 27.53564453 65.54980469 C28.35782471 65.70690918 29.18000488 65.86401367 30.02709961 66.02587891 C32.20361328 66.62011719 32.20361328 66.62011719 35.20361328 68.62011719 C36.52067548 75.97749913 36.35385678 83.41487194 36.32861328 90.87011719 C36.33248047 92.02769531 36.33634766 93.18527344 36.34033203 94.37792969 C36.33839844 96.05242187 36.33839844 96.05242187 36.33642578 97.76074219 C36.33529785 98.7665332 36.33416992 99.77232422 36.33300781 100.80859375 C36.20847137 103.51455923 35.81095487 105.98448386 35.20361328 108.62011719 C20.94161238 110.37045366 20.94161238 110.37045366 15.39892578 106.82714844 C8.84806331 98.45934864 8.77254589 87.98022836 7.83642578 77.77636719 C5.6039699 53.98289605 -4.61421771 30.4964394 -22.79638672 14.62011719 C-47.05075149 -5.07243969 -79.38795151 -10.41248636 -109.67138672 -7.37988281 C-112.71459186 -7.05855567 -115.75547362 -6.72252091 -118.79638672 -6.37988281 C-115.62966835 -10.04535933 -112.24243435 -11.75705994 -107.79638672 -13.44238281 C-107.13574219 -13.69914795 -106.47509766 -13.95591309 -105.79443359 -14.22045898 C-72.5732298 -26.80630725 -28.57395834 -21.94890086 0 0 Z " fill="#158F5E" transform="translate(296.79638671875,100.3798828125)"/>
<path d="M0 0 C1.299375 0.226875 2.59875 0.45375 3.9375 0.6875 C8.88739193 2.80888225 11.70068113 6.33297706 14.0390625 11.1328125 C15.24023919 14.17504505 16 16.71538916 16 20 C14.783125 20.020625 13.56625 20.04125 12.3125 20.0625 C11.62800781 20.07410156 10.94351563 20.08570312 10.23828125 20.09765625 C8 20 8 20 5.65625 19.50878906 C-19.18905922 14.74981623 -43.75995752 24.21554779 -64.20507812 37.73925781 C-69.46085365 41.43088251 -74.21981585 45.72402705 -79 50 C-80.35388853 51.14616195 -81.70801624 52.29204151 -83.0625 53.4375 C-92.24406315 61.5536919 -100.46690376 70.33943964 -108 80 C-108.77730469 80.97195312 -109.55460937 81.94390625 -110.35546875 82.9453125 C-115.9974171 90.10314204 -121.11753713 97.51728299 -126.06567383 105.17211914 C-126.54931396 105.91453857 -127.0329541 106.65695801 -127.53125 107.421875 C-127.95986328 108.08799805 -128.38847656 108.75412109 -128.83007812 109.44042969 C-130 111 -130 111 -132 112 C-135.4375 112.375 -135.4375 112.375 -139 112 C-142.17630793 108.08553601 -142.57977127 104.37219638 -142.9375 99.4375 C-143.04964844 98.13683594 -143.16179687 96.83617187 -143.27734375 95.49609375 C-143 92 -143 92 -141.23046875 89.875 C-140.49441406 89.25625 -139.75835937 88.6375 -139 88 C-137.75171084 86.21478297 -136.54627805 84.39916367 -135.375 82.5625 C-127.79888506 71.02327873 -119.07444864 60.38545165 -110 50 C-109.55543457 49.49082031 -109.11086914 48.98164063 -108.65283203 48.45703125 C-80.82427441 16.81564604 -43.78310667 -8.0803901 0 0 Z " fill="#99D53B" transform="translate(143,88)"/>
<path d="M0 0 C22.52842346 -0.61721708 44.23363885 17.32631188 60 32 C60.63147949 32.58765137 61.26295898 33.17530273 61.91357422 33.78076172 C82.48172761 53.15569373 96.98980764 75.59439531 107 102 C107.42249023 103.10093994 107.42249023 103.10093994 107.85351562 104.22412109 C112.29924369 115.97240845 112.29924369 115.97240845 111.37890625 119.1328125 C109.68623111 121.42487685 107.80700768 123.40179767 105.8125 125.4375 C100.59126035 131.08961865 97.35134406 137.12489547 94 144 C93.67 144 93.34 144 93 144 C92.79246094 142.94425781 92.58492188 141.88851562 92.37109375 140.80078125 C88.62942719 122.51516471 82.97911827 105.3826472 74 89 C73.35537337 87.78650899 72.71084108 86.57296787 72.06640625 85.359375 C64.25251715 70.92143901 53.72980818 58.43656298 42 47 C41.41476563 46.36964844 40.82953125 45.73929688 40.2265625 45.08984375 C28.78996285 33.03677312 13.96874783 23.16865591 -1 16 C-1.02701408 13.89590361 -1.04640223 11.79170822 -1.0625 9.6875 C-1.07410156 8.51574219 -1.08570313 7.34398438 -1.09765625 6.13671875 C-1 3 -1 3 0 0 Z " fill="#99D53B" transform="translate(161,109)"/>
<path d="M0 0 C-2.37366043 30.76388846 -12.38618323 62.59634342 -36 84 C-38.8125 84.3125 -38.8125 84.3125 -41 84 C-41.66 82.68 -42.32 81.36 -43 80 C-46.35412754 80.04821058 -46.35412754 80.04821058 -50 81 C-52.3683257 83.4792212 -52.3683257 83.4792212 -54.1875 86.75 C-57.46981627 91.94821213 -61.03366305 96.52318684 -65.25 101 C-65.99286255 101.79035645 -65.99286255 101.79035645 -66.75073242 102.59667969 C-68.15613413 104.07555255 -69.57660866 105.53846418 -71 107 C-71.90234375 107.94875 -72.8046875 108.8975 -73.734375 109.875 C-76 112 -76 112 -78 112 C-77.48269395 105.26433685 -76.48283863 98.85682439 -74.8125 92.3125 C-74.59110352 91.44455811 -74.36970703 90.57661621 -74.14160156 89.68237305 C-64.30420772 52.43542054 -40.04776793 22.53026164 -7.25 2.875 C-2.29493088 0 -2.29493088 0 0 0 Z " fill="#A2E33F" transform="translate(370,237)"/>
<path d="M0 0 C2.3801828 2.12875504 4.69817583 4.2904227 6.9609375 6.54296875 C4.0859375 11.41796875 4.0859375 11.41796875 2.9609375 12.54296875 C0.95540977 12.60641684 -1.05231471 12.60211745 -3.05859375 12.5703125 C-4.30962891 12.55806641 -5.56066406 12.54582031 -6.84960938 12.53320312 C-9.47479281 12.50076967 -12.09955852 12.45970028 -14.72460938 12.41601562 C-40.97174756 12.18870979 -63.81384234 21.01954272 -82.8515625 38.98046875 C-92.40791853 49.10173253 -99.75292873 61.72612748 -105.0390625 74.54296875 C-105.3690625 74.54296875 -105.6990625 74.54296875 -106.0390625 74.54296875 C-110.03453387 56.87803873 -108.03458863 36.8563161 -98.859375 21.203125 C-86.71800511 3.46005012 -66.66070549 -7.58028351 -45.84375 -11.9140625 C-29.15838328 -14.44726595 -13.20510026 -10.67610291 0 0 Z " fill="#1BA46E" transform="translate(260.0390625,17.45703125)"/>
<path d="M0 0 C0.33 0 0.66 0 1 0 C1.05671875 0.91394531 1.1134375 1.82789063 1.171875 2.76953125 C1.7023499 6.12001931 1.7023499 6.12001931 4.265625 7.94921875 C5.25046875 8.52285156 6.2353125 9.09648437 7.25 9.6875 C38.16045226 28.94680676 59.279571 60.98020678 67.51660156 96.20947266 C67.99666946 98.40604574 68.4462262 100.60536931 68.875 102.8125 C69.00745117 103.48861328 69.13990234 104.16472656 69.27636719 104.86132812 C69.84748714 108.05894529 70.04554358 109.86336927 69 113 C60.15407599 104.7809525 53.03627704 95.78693333 46 86 C42.06924356 86.57452746 42.06924356 86.57452746 39 89 C35.6796875 89.4453125 35.6796875 89.4453125 32 89 C29.4453125 86.8671875 29.4453125 86.8671875 27.125 83.875 C26.70428223 83.33367432 26.28356445 82.79234863 25.85009766 82.23461914 C24.53454524 80.51119126 23.26318173 78.76208956 22 77 C21.60490234 76.46004395 21.20980469 75.92008789 20.80273438 75.36376953 C13.80991303 65.67665526 9.10059184 55.1828443 5 44 C4.68836914 43.16549316 4.37673828 42.33098633 4.05566406 41.47119141 C-1.05717037 27.36896606 -1.56262273 14.8571558 0 0 Z " fill="#2DB080" transform="translate(386,245)"/>
<path d="M0 0 C0 0.33 0 0.66 0 1 C-0.66829834 1.09498779 -1.33659668 1.18997559 -2.02514648 1.2878418 C-34.15265469 5.93181978 -62.28114341 15.12910621 -87 37 C-87.98613281 37.86496094 -88.97226562 38.72992188 -89.98828125 39.62109375 C-100.47158599 48.94162583 -109.23694073 58.94170554 -117.15429688 70.51416016 C-117.64091797 71.22491699 -118.12753906 71.93567383 -118.62890625 72.66796875 C-119.2796814 73.63126099 -119.2796814 73.63126099 -119.94360352 74.61401367 C-120.29221436 75.07138916 -120.6408252 75.52876465 -121 76 C-121.33 76 -121.66 76 -122 76 C-123.07106743 56.36376383 -116.25902446 34.39777024 -103.6953125 19.21484375 C-102.19092438 17.54028714 -100.66595102 15.88379583 -99.11328125 14.25390625 C-96.94660043 12.03122582 -96.94660043 12.03122582 -95.12890625 9.46484375 C-85.12844174 -2.11367572 -65.25659205 -7.20722713 -50.6171875 -8.37109375 C-32.60686451 -9.61974665 -16.43174879 -8.17240416 0 0 Z " fill="#2DB080" transform="translate(368,217)"/>
<path d="M0 0 C0.495 0.495 0.495 0.495 1 1 C0.95359375 1.5775 0.9071875 2.155 0.859375 2.75 C0.72202132 5.57556134 0.93738004 7.35571111 2 10 C4.50045322 12.1268648 7.01444648 13.81663101 9.78076172 15.55932617 C23.12578123 24.03059163 31.83853212 38.67618438 35.453125 53.90966797 C37.08474164 61.30996371 38.16879286 68.41276104 38 76 C34.88321947 73.01537978 32.18581247 70.03264096 29.61645508 66.5480957 C15.9163892 48.08466375 -0.86541911 33.07840848 -21.25 22.5 C-21.85094482 22.18522705 -22.45188965 21.8704541 -23.07104492 21.54614258 C-33.62377199 16.38517516 -44.15461692 15.57647707 -55.75 15.8125 C-57.67199219 15.83280273 -57.67199219 15.83280273 -59.6328125 15.85351562 C-62.75566695 15.88847295 -65.87759541 15.9375391 -69 16 C-67.93172922 14.04652069 -66.8480083 12.10148492 -65.7578125 10.16015625 C-65.15598145 9.07613525 -64.55415039 7.99211426 -63.93408203 6.87524414 C-60.99583912 2.50719482 -57.96545729 1.27898142 -53 0 C-51.98421875 -0.28101563 -50.9684375 -0.56203125 -49.921875 -0.8515625 C-36.06596376 -4.36479118 -12.44976712 -8.54137462 0 0 Z " fill="#A2E33F" transform="translate(456,216)"/>
<path d="M0 0 C10.76550326 9.03896029 21.5144731 20.71141191 23 35.375 C23.39085784 43.56602079 23.62342481 51.50472558 21 59.375 C17.99253393 57.87126696 17.90050861 55.69284558 16.8125 52.5625 C9.91602601 34.18530691 -1.79042317 20.62472225 -19.53125 12.140625 C-28.24134576 8.1983191 -36.62669805 5.41157517 -46.09375 4.04296875 C-49.09995047 3.35202751 -50.25288992 2.88064186 -52 0.375 C-52.09729314 -3.32213921 -51.05237258 -4.56725587 -48.5625 -7.3125 C-34.33318059 -18.13767601 -12.34733162 -9.41941523 0 0 Z " fill="#A2E340" transform="translate(360,160.625)"/>
<path d="M0 0 C0.33 0 0.66 0 1 0 C1.03963867 1.09199707 1.07927734 2.18399414 1.12011719 3.30908203 C2.55308872 41.8457619 5.18665773 80.24380803 10.69628906 118.43017578 C11 121 11 121 11 125 C4.4 125 -2.2 125 -9 125 C-10.36770298 113.04296028 -10.00287552 101.13805552 -9.75 89.125 C-9.72666595 87.99293121 -9.70333191 86.86086243 -9.67929077 85.69448853 C-9.3408638 69.99871639 -8.86487812 54.30763014 -7.97644043 38.63250732 C-7.86867585 36.69663663 -7.76906705 34.76029154 -7.67834473 32.82354736 C-7.09748623 20.78299974 -5.31758948 10.87532816 0 0 Z " fill="#F4A870" transform="translate(152,181)"/>
<path d="M0 0 C0.33 0 0.66 0 1 0 C3.00969339 21.37783171 3.31506946 42.63347867 3.26074219 64.09057617 C3.24934018 68.6505658 3.25612625 73.21032204 3.26763153 77.77030373 C3.36291417 122.40749689 3.36291417 122.40749689 1 138 C0 139 0 139 -1.76586914 139.11352539 C-2.51473389 139.10828857 -3.26359863 139.10305176 -4.03515625 139.09765625 C-4.84404297 139.09443359 -5.65292969 139.09121094 -6.48632812 139.08789062 C-7.33646484 139.07951172 -8.18660156 139.07113281 -9.0625 139.0625 C-9.91650391 139.05798828 -10.77050781 139.05347656 -11.65039062 139.04882812 C-13.76695663 139.03700373 -15.88348685 139.01906769 -18 139 C-17.6757605 137.30701782 -17.6757605 137.30701782 -17.3449707 135.57983398 C-9.82014135 96.10114971 -3.95387825 56.52185084 -1.73632812 16.35839844 C-1.69368835 15.58760956 -1.65104858 14.81682068 -1.6071167 14.02267456 C-1.52733687 12.54040021 -1.45132124 11.05791677 -1.37969971 9.57522583 C-1.20559649 6.27504335 -0.98136014 3.16748777 0 0 Z " fill="#E7995D" transform="translate(371,306)"/>
<path d="M0 0 C2.02489131 3.03733697 2.46684084 4.62973349 3.0703125 8.1484375 C3.24433594 9.15390625 3.41835937 10.159375 3.59765625 11.1953125 C3.77167969 12.24460937 3.94570312 13.29390625 4.125 14.375 C4.30675781 15.4165625 4.48851562 16.458125 4.67578125 17.53125 C5.44972399 22.08180053 6.10765909 26.3727494 6 31 C1.85418113 31.02886751 -2.29161216 31.04675327 -6.4375 31.0625 C-8.21350586 31.07506836 -8.21350586 31.07506836 -10.02539062 31.08789062 C-11.15009766 31.09111328 -12.27480469 31.09433594 -13.43359375 31.09765625 C-14.99678345 31.10551147 -14.99678345 31.10551147 -16.59155273 31.11352539 C-19 31 -19 31 -20 30 C-20.24328781 27.38991226 -20.42648088 24.80370342 -20.5625 22.1875 C-20.6049585 21.42445557 -20.64741699 20.66141113 -20.69116211 19.87524414 C-21.01924525 13.57961244 -21.08698068 7.30338095 -21 1 C-17.5430244 0.74582371 -14.08471174 0.52592378 -10.625 0.3125 C-9.64015625 0.23966797 -8.6553125 0.16683594 -7.640625 0.09179688 C-6.22910156 0.00961914 -6.22910156 0.00961914 -4.7890625 -0.07421875 C-3.91975098 -0.13182373 -3.05043945 -0.18942871 -2.15478516 -0.2487793 C-1.44370605 -0.16668213 -0.73262695 -0.08458496 0 0 Z " fill="#F4A870" transform="translate(164,321)"/>
<path d="M0 0 C1.09634766 -0.01224609 2.19269531 -0.02449219 3.32226562 -0.03710938 C4.36705078 -0.03904297 5.41183594 -0.04097656 6.48828125 -0.04296875 C7.91394409 -0.04913208 7.91394409 -0.04913208 9.3684082 -0.05541992 C11.6875 0.1875 11.6875 0.1875 13.6875 2.1875 C15.1620927 7.10280901 15.72876837 11.04739294 15.6875 16.1875 C11.07940905 16.28665614 6.47194408 16.35910182 1.86303711 16.40722656 C0.29652077 16.42729558 -1.26992109 16.45455751 -2.83618164 16.48925781 C-5.09279794 16.53798754 -7.34842083 16.5605147 -9.60546875 16.578125 C-10.30149704 16.59877014 -10.99752533 16.61941528 -11.71464539 16.64068604 C-15.25283311 16.64230494 -17.22012844 16.24403124 -20.26293945 14.38183594 C-22.3125 12.1875 -22.3125 12.1875 -22.8125 8.6875 C-22.0716623 3.50163613 -22.0716623 3.50163613 -19.3125 1.1875 C-12.93331505 -0.13203004 -6.4911086 0.00388457 0 0 Z " fill="#D68A5A" transform="translate(192.3125,392.8125)"/>
<path d="M0 0 C4.58312084 -0.11605098 9.16586449 -0.18720362 13.75 -0.25 C15.05195313 -0.28351563 16.35390625 -0.31703125 17.6953125 -0.3515625 C18.94570312 -0.36445313 20.19609375 -0.37734375 21.484375 -0.390625 C22.63647461 -0.41157227 23.78857422 -0.43251953 24.97558594 -0.45410156 C28.65713126 0.09866517 29.80795397 1.03816751 32 4 C32.55405168 7.87836179 32.74438111 10.00260921 30.36230469 13.19433594 C27.29157031 15.54149918 25.53775411 15.46297649 21.703125 15.390625 C20.49785156 15.37773437 19.29257813 15.36484375 18.05078125 15.3515625 C16.79652344 15.31804687 15.54226562 15.28453125 14.25 15.25 C12.98027344 15.23195313 11.71054688 15.21390625 10.40234375 15.1953125 C7.26746923 15.14817153 4.1341144 15.08237664 1 15 C-0.09506492 11.71480525 -0.09960608 9.26336585 -0.0625 5.8125 C-0.05347656 4.72582031 -0.04445312 3.63914062 -0.03515625 2.51953125 C-0.02355469 1.68808594 -0.01195312 0.85664063 0 0 Z " fill="#D68A5A" transform="translate(145,353)"/>
<path d="M0 0 C3.91641711 -0.11618764 7.83239101 -0.18724654 11.75 -0.25 C13.41675781 -0.30027344 13.41675781 -0.30027344 15.1171875 -0.3515625 C16.18710937 -0.36445313 17.25703125 -0.37734375 18.359375 -0.390625 C19.34389648 -0.41157227 20.32841797 -0.43251953 21.34277344 -0.45410156 C24.76337465 0.13045543 25.911723 1.2766347 28 4 C28.5625 7.5 28.5625 7.5 28 11 C25.3612655 13.71143772 23.72368718 14.89211684 19.95385742 15.45410156 C18.84888916 15.4331543 17.7439209 15.41220703 16.60546875 15.390625 C15.40341797 15.37773437 14.20136719 15.36484375 12.96289062 15.3515625 C11.71701172 15.31804687 10.47113281 15.28453125 9.1875 15.25 C7.28967773 15.22292969 7.28967773 15.22292969 5.35351562 15.1953125 C2.23490665 15.14823916 -0.88215973 15.08249094 -4 15 C-3.71617054 13.24871182 -3.42260471 11.49899997 -3.125 9.75 C-2.96257812 8.77546875 -2.80015625 7.8009375 -2.6328125 6.796875 C-2.05144152 4.22735883 -1.29159735 2.27928944 0 0 Z " fill="#C97D53" transform="translate(346,476)"/>
<path d="M0 0 C0.95519531 -0.03738281 1.91039062 -0.07476562 2.89453125 -0.11328125 C7.64793799 -0.17278147 9.97721069 -0.1995395 13.88671875 2.70703125 C15.75 5.375 15.75 5.375 16.3125 8.4375 C15.63178485 11.99234581 14.54927541 13.152046 11.75 15.375 C9.40147472 16.54926264 8.01225935 16.49008173 5.3984375 16.47265625 C4.54765625 16.46943359 3.696875 16.46621094 2.8203125 16.46289062 C1.93085938 16.45451172 1.04140625 16.44613281 0.125 16.4375 C-0.7721875 16.43298828 -1.669375 16.42847656 -2.59375 16.42382812 C-4.81256648 16.41202591 -7.03125018 16.39556155 -9.25 16.375 C-9.58298219 14.94874199 -9.91155239 13.5214535 -10.23828125 12.09375 C-10.51345581 10.90168945 -10.51345581 10.90168945 -10.79418945 9.68554688 C-11.35067206 6.86468381 -11.46488544 4.24013914 -11.25 1.375 C-8.88249158 -0.99250842 -3.17451421 0.04637405 0 0 Z " fill="#D78B5A" transform="translate(169.25,449.625)"/>
<path d="M0 0 C3.2296738 -0.08111739 6.45730014 -0.14055592 9.6875 -0.1875 C11.05551758 -0.22520508 11.05551758 -0.22520508 12.45117188 -0.26367188 C17.47202952 -0.31844487 20.92233294 -0.2970139 25 3 C26 4 26 4 26.375 7.25 C26 11 26 11 24.15234375 13.71484375 C19.56903974 17.0373132 15.69253862 16.55281398 10.1875 16.3125 C8.71893555 16.27866211 8.71893555 16.27866211 7.22070312 16.24414062 C4.8131427 16.18541964 2.40637246 16.09574426 0 16 C0 10.72 0 5.44 0 0 Z " fill="#D78B5A" transform="translate(143,306)"/>
<path d="M0 0 C2.72943537 -0.05416741 5.45778564 -0.09375225 8.1875 -0.125 C9.34088867 -0.15013672 9.34088867 -0.15013672 10.51757812 -0.17578125 C14.75816472 -0.21218113 18.21274161 -0.15395864 22 2 C24.32579101 5.48868651 24.41865457 6.89718519 24 11 C22.22015595 14.1359157 21.47691793 14.84102736 18 16 C16.37280518 16.08143855 14.74248281 16.1075302 13.11328125 16.09765625 C12.17548828 16.09443359 11.23769531 16.09121094 10.27148438 16.08789062 C9.29501953 16.07951172 8.31855469 16.07113281 7.3125 16.0625 C6.32443359 16.05798828 5.33636719 16.05347656 4.31835938 16.04882812 C1.87884526 16.03704303 -0.56054689 16.02059011 -3 16 C-2.40984815 10.49191603 -1.43336231 5.35121931 0 0 Z " fill="#CA7E53" transform="translate(353,445)"/>
<path d="M0 0 C7.92 0 15.84 0 24 0 C22.875 11.25 22.875 11.25 21 16 C17.91684615 16.08733513 14.83401173 16.14050127 11.75 16.1875 C10.87730469 16.21263672 10.00460937 16.23777344 9.10546875 16.26367188 C5.45199634 16.30550553 2.73157774 16.33471589 -0.62109375 14.80078125 C-2 13 -2 13 -2.20703125 10.625 C-2.07683594 9.75875 -1.94664062 8.8925 -1.8125 8 C-1.69519531 7.13375 -1.57789063 6.2675 -1.45703125 5.375 C-1 3 -1 3 0 0 Z " fill="#E7995D" transform="translate(341,491)"/>
<path d="M0 0 C1.25393555 0.02707031 1.25393555 0.02707031 2.53320312 0.0546875 C4.58513228 0.10158874 6.63646756 0.17332589 8.6875 0.25 C9.64361549 3.75685958 9.78961174 6.85571981 9.75 10.5 C9.74097656 11.57765625 9.73195312 12.6553125 9.72265625 13.765625 C9.71105469 14.58546875 9.69945312 15.4053125 9.6875 16.25 C6.45881254 16.39584064 3.23097635 16.48424106 0 16.5625 C-1.36801758 16.6253418 -1.36801758 16.6253418 -2.76367188 16.68945312 C-7.41159878 16.77396089 -9.59995654 16.77176283 -13.44921875 13.953125 C-15.3125 11.25 -15.3125 11.25 -15.4375 7.6875 C-12.83811924 -0.25505233 -7.28871535 -0.29914222 0 0 Z " fill="#D68A5A" transform="translate(174.3125,259.75)"/>
<path d="M0 0 C6.93 0 13.86 0 21 0 C20.34 4.62 19.68 9.24 19 14 C11.74 14 4.48 14 -3 14 C-2.01 9.38 -1.02 4.76 0 0 Z " fill="#E7995D" transform="translate(349,461)"/>
<path d="M0 0 C0 5.28 0 10.56 0 16 C-10.95652174 16.48160535 -10.95652174 16.48160535 -15.25 14.5 C-17.87464748 10.7505036 -17.5749513 8.5277415 -17 4 C-13.20791271 -1.59784314 -5.93866318 -0.06986663 0 0 Z " fill="#C97D53" transform="translate(399,378)"/>
</svg>
